<?xml version="1.0" encoding="UTF-8"?>
<!DOCTYPE svg PUBLIC "-//W3C//DTD SVG 1.1//EN" "http://www.w3.org/Graphics/SVG/1.1/DTD/svg11.dtd">
<!-- Creator: CorelDRAW X8 -->
<svg xmlns="http://www.w3.org/2000/svg" xml:space="preserve" width="105mm" height="148mm" version="1.1" style="shape-rendering:geometricPrecision; text-rendering:geometricPrecision; image-rendering:optimizeQuality; fill-rule:evenodd; clip-rule:evenodd"
viewBox="0 0 10500 14800"
 xmlns:xlink="http://www.w3.org/1999/xlink">
 <defs>
  <style type="text/css">
   <![CDATA[
    .fil0 {fill:#1C1B17}
   ]]>
  </style>
 </defs>
 <g id="Capa_x0020_1">
  <metadata id="CorelCorpID_0Corel-Layer"/>
  <path class="fil0" d="M2254 2623l-394 0c-36,0 -70,-12 -96,-38 -25,-25 -38,-58 -38,-94 0,-36 12,-70 38,-96 26,-26 60,-38 96,-38l1070 0c36,0 70,12 95,38 26,26 39,60 39,96 0,36 -13,69 -39,94 -25,26 -59,38 -95,38l-396 0 0 1234c0,37 -14,70 -39,97 -27,28 -62,42 -101,42 -38,0 -72,-14 -99,-41 -27,-26 -41,-60 -41,-98l0 -1234zm1688 715l278 444c28,45 39,97 13,145 -25,49 -74,69 -127,69 -27,0 -53,-5 -76,-20 -19,-13 -34,-30 -45,-48l-328 -523 -220 0 0 452c0,38 -13,72 -40,99 -27,27 -62,40 -100,40 -38,0 -73,-13 -99,-40 -27,-27 -41,-61 -41,-99l0 -1360c0,-38 14,-73 41,-100 26,-27 61,-40 99,-40l362 0c99,0 194,20 282,67 83,44 149,107 198,188 50,84 72,178 72,276 0,95 -23,186 -73,267 -48,79 -114,140 -196,183zm1439 299l-663 0 -114 273c-11,27 -28,50 -53,65 -23,14 -49,21 -76,21 -141,0 -179,-78 -127,-197l569 -1350c24,-57 70,-92 133,-92 62,0 107,36 131,92l570 1352c19,44 17,90 -10,131 -26,41 -67,64 -117,64 -27,0 -53,-7 -76,-21 -24,-16 -43,-38 -55,-65l-112 -273zm1299 -91l550 -1114c24,-50 72,-75 126,-75 37,0 71,14 97,40 27,27 40,62 40,100l0 1360c0,37 -13,71 -39,97 -26,28 -60,42 -98,42 -39,0 -74,-13 -101,-41 -27,-26 -41,-60 -41,-98l0 -818 -416 850c-24,48 -70,73 -123,73 -58,0 -102,-31 -128,-82l-413 -828 0 805c0,37 -15,72 -41,98 -27,27 -61,41 -99,41 -38,0 -72,-14 -99,-41 -27,-26 -41,-61 -41,-98l0 -1360c0,-39 14,-74 42,-101 27,-25 61,-39 98,-39 54,0 100,25 125,74l561 1115zm1958 91l-663 0 -113 273c-11,27 -29,50 -53,65 -23,14 -49,21 -76,21 -53,0 -97,-24 -121,-71 -21,-40 -24,-84 -6,-126l568 -1350c24,-57 71,-92 133,-92 62,0 107,36 131,92l571 1352c18,44 16,90 -10,131 -27,41 -68,64 -117,64 -27,0 -53,-7 -76,-21 -25,-16 -44,-38 -55,-65l-113 -273zm-5201 -506l222 0c50,0 100,-9 145,-33 40,-20 72,-49 97,-86 24,-38 34,-80 34,-124 0,-48 -10,-93 -35,-134 -24,-39 -56,-69 -96,-90 -45,-24 -95,-33 -145,-33l-222 0 0 500zm1837 247l-223 -542 -226 542 449 0zm3257 0l-223 -542 -225 542 448 0z"/>
  <g id="_2466689557312">
   <path class="fil0" d="M5638 11584l-275 0c-20,0 -39,-7 -54,-21 -14,-15 -21,-33 -21,-53 0,-21 7,-40 21,-54 15,-15 34,-22 54,-22l710 0c21,0 40,7 54,22 15,14 22,33 22,54 0,20 -7,38 -22,53 -14,14 -33,21 -54,21l-276 0 0 832c0,21 -8,40 -22,56 -16,16 -35,23 -57,23 -22,0 -41,-8 -56,-23 -16,-15 -24,-34 -24,-56l0 -832zm759 5l0 296 372 0c22,0 41,7 57,23 15,15 22,34 22,55 0,21 -7,40 -22,55 -16,16 -35,23 -57,23l-372 0 0 300 522 0c22,0 41,7 56,22 15,15 24,33 24,54 0,23 -8,42 -25,57 -15,14 -34,21 -55,21l-602 0c-21,0 -41,-7 -56,-22 -16,-16 -23,-35 -23,-57l0 -902c0,-22 7,-42 23,-57 15,-15 35,-23 56,-23l602 0c21,0 40,7 55,21 17,15 25,35 25,57 0,22 -9,40 -24,55 -15,14 -34,22 -56,22l-522 0zm983 364l-284 -394c-12,-15 -17,-34 -16,-53 2,-19 9,-36 22,-50 14,-15 33,-22 54,-22 24,0 46,10 61,29l0 1 268 371 273 -371 0 -1c15,-19 37,-29 61,-29 21,0 40,8 55,23 12,14 19,31 21,50 1,19 -4,37 -15,52l-290 394 299 415c12,15 17,34 17,53 -1,19 -8,37 -21,51 -14,16 -34,23 -55,23 -12,0 -22,-2 -33,-7 -11,-4 -20,-12 -28,-21l-1 -1 -284 -393 -290 396 -1 2c-16,16 -36,24 -58,24 -21,0 -41,-6 -55,-22 -13,-13 -20,-31 -22,-50 -1,-20 5,-39 18,-55l304 -415zm895 -369l-275 0c-20,0 -39,-7 -54,-21 -14,-15 -21,-33 -21,-53 0,-21 7,-40 21,-54 15,-15 34,-22 54,-22l710 0c21,0 40,7 54,22 15,14 22,33 22,54 0,20 -7,38 -22,53 -14,14 -33,21 -54,21l-276 0 0 832c0,21 -8,40 -22,56 -16,16 -35,23 -57,23 -22,0 -41,-8 -56,-23 -16,-15 -24,-34 -24,-56l0 -832zm679 911c-21,0 -41,-7 -56,-22 -16,-16 -23,-35 -23,-57l0 -902c0,-22 7,-42 23,-57 15,-15 35,-23 56,-23 22,0 41,8 57,23 15,15 22,35 22,57l0 902c0,22 -7,41 -22,57 -16,15 -35,22 -57,22zm436 -153l473 0c21,0 40,7 55,21 16,15 24,34 24,56 0,21 -8,41 -24,55 -15,14 -34,21 -55,21l-552 0c-21,0 -40,-7 -55,-22 -16,-15 -24,-35 -24,-57l0 -902c0,-22 8,-41 23,-56 15,-16 35,-24 56,-24 22,0 41,8 56,24 15,15 23,34 23,56l0 828z"/>
   <path class="fil0" d="M3117 9239c-29,0 -181,37 -225,52 -516,185 -1056,290 -1543,533 -34,17 -14,72 -13,94 129,188 238,170 508,77 251,-91 788,-203 878,-232 414,-127 996,-529 395,-524z"/>
   <path class="fil0" d="M4150 6215c166,-110 673,-327 477,-565 -298,-125 -500,283 -785,384 -52,19 -247,95 -298,160 -193,248 -445,698 -108,708 370,-51 484,-485 714,-687z"/>
   <path class="fil0" d="M5048 8370c-598,80 -1726,1047 -591,697 55,-16 232,-62 264,-71 291,-82 861,-583 327,-626z"/>
   <path class="fil0" d="M8323 5108c263,-178 -164,-295 -461,-404 -97,-35 -348,-81 -403,-70 -1301,281 436,515 864,474z"/>
   <path class="fil0" d="M2483 10253c-223,201 519,404 748,325 715,-234 -154,-411 -574,-385 -34,2 -154,41 -174,60z"/>
   <path class="fil0" d="M4963 10459c-184,-9 -368,-17 -542,-24 -72,9 -134,12 -194,25 -94,20 -143,153 -75,208 57,47 126,95 196,107 128,22 262,29 394,23 99,-6 198,-38 295,-67 29,-9 60,-38 76,-66 34,-64 -68,-202 -150,-206z"/>
   <path class="fil0" d="M2362 8563c19,-9 78,-74 86,-94 89,-207 197,-405 296,-610 13,-27 22,-108 14,-121 -291,-432 -904,1061 -396,825z"/>
   <path class="fil0" d="M9770 5542c-39,-591 -974,-846 -404,-115 115,109 280,316 404,115z"/>
   <path class="fil0" d="M10008 6089c-253,-95 -426,128 -591,295 -209,80 -413,131 -506,386 131,445 1203,-362 1097,-681z"/>
   <path class="fil0" d="M8998 7708c-173,-172 -380,-307 -621,-405 -242,-97 -506,-146 -794,-146 -226,0 -446,21 -661,61 -214,40 -424,110 -627,212l-27 0 0 -2443c0,-8 -7,-27 -23,-57 -15,-29 -27,-50 -36,-62 -36,-53 -76,-87 -120,-100 -43,-13 -97,-20 -159,-20 -71,0 -141,22 -209,67 -68,44 -103,105 -103,186l0 5829c0,79 36,145 109,196 73,51 144,77 210,77 89,0 161,-27 216,-80 56,-53 96,-117 123,-192l20 0c213,102 425,172 634,212 210,40 431,60 661,60 284,0 546,-49 787,-146 242,-98 449,-234 621,-409 173,-175 308,-383 405,-625 98,-241 146,-506 146,-793 0,-292 -48,-559 -146,-800 -99,-242 -234,-449 -406,-622zm-209 1959c-64,160 -154,297 -269,412 -115,115 -253,206 -412,269 -160,64 -335,97 -525,97 -102,0 -207,-5 -315,-14 -109,-9 -216,-27 -322,-56 -106,-29 -207,-69 -302,-120 -95,-51 -178,-118 -249,-202 -22,-31 -47,-71 -77,-120 -29,-48 -42,-93 -42,-133l0 -1355c0,-18 10,-45 30,-83 20,-37 34,-67 42,-89 58,-98 135,-176 229,-236 95,-61 199,-106 312,-140 113,-33 228,-56 346,-67 118,-10 227,-16 328,-16 199,0 380,31 541,93 161,62 301,151 419,265 117,115 207,255 269,419 62,164 93,346 93,544 0,196 -32,373 -96,532z"/>
   <path class="fil0" d="M879 9563c-104,6 -165,81 -144,183 11,47 30,94 56,133 102,159 104,181 258,285 3,1 7,1 7,1 13,-56 92,-157 44,-201 -72,-65 -135,-138 -186,-222 228,52 575,344 629,493 -41,-13 -75,-25 -123,-41 -8,50 -22,95 -30,142 -5,28 5,43 33,51 41,14 86,26 120,51 887,647 1774,1295 2660,1945 53,40 112,47 179,61 -29,-63 -50,-118 -101,-161 -787,-653 -1573,-1307 -2358,-1962 -104,-87 -211,-169 -293,-284 -130,-181 -310,-311 -509,-411 -75,-39 -154,-68 -242,-63z"/>
   <path class="fil0" d="M1269 11902c36,-25 56,-105 50,-157 -61,-499 -99,-995 67,-1483 8,-22 6,-62 -9,-76 -64,-66 -134,-125 -202,-187 -16,17 -22,22 -25,28 -12,27 -24,53 -34,79 -212,564 -179,1142 -96,1723 4,32 41,79 69,85 58,10 135,17 180,-12z"/>
  </g>
 </g>
</svg>
