<svg xmlns="http://www.w3.org/2000/svg" xmlns:xlink="http://www.w3.org/1999/xlink" width="600" zoomAndPan="magnify" viewBox="0 0 450 89.999999" height="120" preserveAspectRatio="xMidYMid meet" version="1.0"><path fill="#F9F4F4" d="M 390.183594 76.203125 L 387.25 76.203125 C 387.03125 76.203125 386.828125 76.132812 386.671875 75.976562 C 386.515625 75.824219 386.441406 75.625 386.441406 75.410156 C 386.441406 75.191406 386.515625 74.988281 386.671875 74.832031 C 386.828125 74.679688 387.03125 74.609375 387.25 74.609375 L 394.832031 74.609375 C 395.050781 74.609375 395.253906 74.679688 395.410156 74.832031 C 395.566406 74.988281 395.640625 75.191406 395.640625 75.410156 C 395.640625 75.625 395.566406 75.824219 395.410156 75.976562 C 395.253906 76.132812 395.050781 76.203125 394.832031 76.203125 L 391.878906 76.203125 L 391.878906 85.101562 C 391.878906 85.324219 391.796875 85.527344 391.640625 85.695312 C 391.480469 85.863281 391.265625 85.949219 391.035156 85.949219 C 390.804688 85.949219 390.597656 85.863281 390.433594 85.695312 C 390.273438 85.535156 390.183594 85.332031 390.183594 85.101562 Z M 398.289062 76.261719 L 398.289062 79.421875 L 402.273438 79.421875 C 402.503906 79.421875 402.710938 79.5 402.875 79.667969 C 403.035156 79.828125 403.117188 80.03125 403.117188 80.257812 C 403.117188 80.480469 403.035156 80.691406 402.875 80.84375 C 402.710938 81.011719 402.503906 81.089844 402.273438 81.089844 L 398.289062 81.089844 L 398.289062 84.289062 L 403.878906 84.289062 C 404.105469 84.289062 404.308594 84.371094 404.46875 84.535156 C 404.628906 84.691406 404.722656 84.886719 404.722656 85.113281 C 404.722656 85.347656 404.636719 85.5625 404.464844 85.71875 C 404.300781 85.867188 404.097656 85.949219 403.878906 85.949219 L 397.441406 85.949219 C 397.207031 85.949219 397 85.867188 396.839844 85.707031 C 396.671875 85.539062 396.597656 85.332031 396.597656 85.101562 L 396.597656 75.453125 C 396.597656 75.222656 396.671875 75.011719 396.839844 74.851562 C 397 74.683594 397.207031 74.609375 397.441406 74.609375 L 403.878906 74.609375 C 404.097656 74.609375 404.300781 74.683594 404.464844 74.832031 C 404.636719 74.988281 404.722656 75.203125 404.722656 75.441406 C 404.722656 75.667969 404.628906 75.867188 404.46875 76.023438 C 404.308594 76.179688 404.105469 76.261719 403.878906 76.261719 Z M 408.792969 80.152344 L 405.769531 75.945312 C 405.640625 75.777344 405.578125 75.578125 405.597656 75.371094 C 405.609375 75.167969 405.683594 74.988281 405.828125 74.839844 C 405.976562 74.679688 406.179688 74.609375 406.398438 74.609375 C 406.664062 74.609375 406.898438 74.710938 407.058594 74.921875 L 407.0625 74.921875 L 409.925781 78.886719 L 412.832031 74.921875 L 412.839844 74.921875 C 413 74.710938 413.230469 74.609375 413.492188 74.609375 C 413.71875 74.609375 413.925781 74.683594 414.074219 74.851562 C 414.210938 75 414.285156 75.1875 414.300781 75.382812 C 414.3125 75.585938 414.265625 75.777344 414.144531 75.945312 L 411.042969 80.15625 L 414.238281 84.585938 C 414.363281 84.746094 414.421875 84.945312 414.417969 85.152344 C 414.410156 85.359375 414.335938 85.546875 414.199219 85.699219 C 414.046875 85.875 413.832031 85.949219 413.601562 85.949219 C 413.488281 85.949219 413.371094 85.921875 413.261719 85.875 C 413.140625 85.824219 413.042969 85.742188 412.953125 85.644531 L 412.949219 85.636719 L 409.914062 81.433594 L 406.808594 85.667969 L 406.796875 85.683594 C 406.636719 85.855469 406.421875 85.949219 406.179688 85.949219 C 405.960938 85.949219 405.746094 85.875 405.589844 85.710938 C 405.453125 85.5625 405.375 85.378906 405.363281 85.175781 C 405.347656 84.957031 405.417969 84.753906 405.542969 84.585938 Z M 418.371094 76.203125 L 415.429688 76.203125 C 415.210938 76.203125 415.007812 76.132812 414.851562 75.976562 C 414.699219 75.824219 414.625 75.625 414.625 75.410156 C 414.625 75.191406 414.695312 74.988281 414.851562 74.832031 C 415.007812 74.679688 415.210938 74.609375 415.429688 74.609375 L 423.019531 74.609375 C 423.238281 74.609375 423.441406 74.679688 423.597656 74.832031 C 423.753906 74.988281 423.820312 75.191406 423.820312 75.410156 C 423.820312 75.625 423.746094 75.824219 423.597656 75.976562 C 423.441406 76.132812 423.238281 76.203125 423.019531 76.203125 L 420.066406 76.203125 L 420.066406 85.101562 C 420.066406 85.324219 419.984375 85.527344 419.828125 85.695312 C 419.660156 85.863281 419.453125 85.949219 419.214844 85.949219 C 418.984375 85.949219 418.78125 85.863281 418.621094 85.695312 C 418.457031 85.535156 418.371094 85.332031 418.371094 85.101562 Z M 425.625 85.949219 C 425.394531 85.949219 425.179688 85.867188 425.019531 85.707031 C 424.855469 85.539062 424.777344 85.332031 424.777344 85.101562 L 424.777344 75.453125 C 424.777344 75.222656 424.855469 75.011719 425.019531 74.851562 C 425.179688 74.683594 425.394531 74.609375 425.625 74.609375 C 425.855469 74.609375 426.066406 74.683594 426.226562 74.851562 C 426.394531 75.011719 426.46875 75.222656 426.46875 75.453125 L 426.46875 85.101562 C 426.46875 85.332031 426.394531 85.539062 426.226562 85.707031 C 426.066406 85.867188 425.855469 85.949219 425.625 85.949219 Z M 430.285156 84.308594 L 435.335938 84.308594 C 435.5625 84.308594 435.765625 84.382812 435.925781 84.535156 C 436.101562 84.691406 436.1875 84.898438 436.1875 85.128906 C 436.1875 85.359375 436.101562 85.5625 435.925781 85.722656 C 435.765625 85.867188 435.5625 85.949219 435.335938 85.949219 L 429.441406 85.949219 C 429.210938 85.949219 429.007812 85.867188 428.84375 85.707031 C 428.675781 85.546875 428.589844 85.335938 428.589844 85.101562 L 428.589844 75.453125 C 428.589844 75.222656 428.675781 75.019531 428.839844 74.855469 C 429 74.695312 429.210938 74.609375 429.441406 74.609375 C 429.667969 74.609375 429.875 74.695312 430.035156 74.855469 C 430.199219 75.019531 430.285156 75.222656 430.285156 75.453125 Z M 430.285156 84.308594 " fill-opacity="1" fill-rule="evenodd"/><path fill="#F9F4F4" d="M 363.238281 51.152344 C 362.929688 51.152344 361.304688 51.539062 360.839844 51.707031 C 355.324219 53.671875 349.550781 54.804688 344.347656 57.394531 C 343.976562 57.578125 344.195312 58.167969 344.207031 58.398438 C 345.589844 60.410156 346.75 60.214844 349.636719 59.226562 C 352.3125 58.25 358.058594 57.046875 359.023438 56.746094 C 363.445312 55.382812 369.660156 51.085938 363.238281 51.152344 Z M 363.238281 51.152344 " fill-opacity="1" fill-rule="evenodd"/><path fill="#F9F4F4" d="M 374.277344 18.832031 C 376.050781 17.652344 381.46875 15.328125 379.375 12.785156 C 376.195312 11.449219 374.035156 15.808594 370.996094 16.890625 C 370.429688 17.09375 368.351562 17.902344 367.804688 18.605469 C 365.738281 21.25 363.050781 26.0625 366.648438 26.167969 C 370.601562 25.625 371.820312 20.984375 374.277344 18.832031 Z M 374.277344 18.832031 " fill-opacity="1" fill-rule="evenodd"/><path fill="#F9F4F4" d="M 383.878906 41.863281 C 377.484375 42.707031 365.429688 53.046875 377.5625 49.308594 C 378.144531 49.132812 380.035156 48.644531 380.375 48.542969 C 383.496094 47.671875 389.578125 42.320312 383.878906 41.863281 Z M 383.878906 41.863281 " fill-opacity="1" fill-rule="evenodd"/><path fill="#F9F4F4" d="M 418.875 7 C 421.695312 5.097656 417.121094 3.839844 413.953125 2.683594 C 412.914062 2.300781 410.230469 1.816406 409.648438 1.929688 C 395.742188 4.929688 414.308594 7.441406 418.875 7 Z M 418.875 7 " fill-opacity="1" fill-rule="evenodd"/><path fill="#F9F4F4" d="M 356.460938 61.976562 C 354.082031 64.128906 362.003906 66.296875 364.460938 65.457031 C 372.105469 62.949219 362.816406 61.058594 358.324219 61.34375 C 357.960938 61.367188 356.675781 61.78125 356.460938 61.976562 Z M 356.460938 61.976562 " fill-opacity="1" fill-rule="evenodd"/><path fill="#F9F4F4" d="M 382.972656 64.179688 C 381 64.082031 379.035156 64.007812 377.171875 63.925781 C 376.410156 64.023438 375.738281 64.054688 375.105469 64.191406 C 374.105469 64.40625 373.578125 65.828125 374.296875 66.421875 C 374.914062 66.921875 375.652344 67.433594 376.394531 67.5625 C 377.769531 67.792969 379.195312 67.875 380.601562 67.804688 C 381.664062 67.746094 382.730469 67.394531 383.757812 67.09375 C 384.070312 66.996094 384.40625 66.683594 384.566406 66.382812 C 384.929688 65.699219 383.851562 64.226562 382.972656 64.179688 Z M 382.972656 64.179688 " fill-opacity="1" fill-rule="evenodd"/><path fill="#F9F4F4" d="M 355.171875 43.921875 C 355.371094 43.820312 356.003906 43.128906 356.09375 42.914062 C 357.046875 40.699219 358.195312 38.585938 359.261719 36.394531 C 359.394531 36.109375 359.492188 35.242188 359.40625 35.105469 C 356.292969 30.484375 349.734375 46.441406 355.171875 43.921875 Z M 355.171875 43.921875 " fill-opacity="1" fill-rule="evenodd"/><path fill="#F9F4F4" d="M 434.347656 11.628906 C 433.925781 5.3125 423.9375 2.59375 430.019531 10.398438 C 431.253906 11.566406 433.023438 13.78125 434.347656 11.628906 Z M 434.347656 11.628906 " fill-opacity="1" fill-rule="evenodd"/><path fill="#F9F4F4" d="M 436.890625 17.472656 C 434.179688 16.460938 432.332031 18.851562 430.566406 20.628906 C 428.335938 21.492188 426.164062 22.03125 425.167969 24.757812 C 426.5625 29.515625 438.019531 20.886719 436.890625 17.472656 Z M 436.890625 17.472656 " fill-opacity="1" fill-rule="evenodd"/><path fill="#F9F4F4" d="M 426.089844 34.785156 C 424.242188 32.941406 422.035156 31.496094 419.453125 30.457031 C 416.867188 29.417969 414.042969 28.898438 410.972656 28.898438 C 408.554688 28.898438 406.207031 29.109375 403.910156 29.542969 C 401.613281 29.972656 399.375 30.722656 397.203125 31.808594 L 396.917969 31.808594 L 396.917969 5.699219 C 396.917969 5.613281 396.839844 5.410156 396.675781 5.097656 C 396.507812 4.785156 396.382812 4.5625 396.285156 4.429688 C 395.902344 3.863281 395.472656 3.496094 395.007812 3.363281 C 394.539062 3.226562 393.964844 3.152344 393.300781 3.152344 C 392.542969 3.152344 391.796875 3.382812 391.070312 3.863281 C 390.339844 4.335938 389.972656 4.988281 389.972656 5.851562 L 389.972656 68.144531 C 389.972656 68.996094 390.359375 69.695312 391.140625 70.246094 C 391.917969 70.789062 392.671875 71.058594 393.382812 71.058594 C 394.324219 71.058594 395.09375 70.777344 395.6875 70.214844 C 396.285156 69.648438 396.710938 68.957031 397.007812 68.15625 L 397.21875 68.15625 C 399.492188 69.25 401.753906 69.996094 403.996094 70.429688 C 406.238281 70.855469 408.597656 71.058594 411.058594 71.058594 C 414.09375 71.058594 416.886719 70.542969 419.46875 69.5 C 422.054688 68.457031 424.265625 67.007812 426.105469 65.132812 C 427.949219 63.261719 429.394531 61.042969 430.433594 58.457031 C 431.476562 55.875 431.996094 53.046875 431.996094 49.976562 C 431.996094 46.863281 431.476562 44.007812 430.433594 41.433594 C 429.371094 38.839844 427.933594 36.625 426.089844 34.785156 Z M 423.855469 55.71875 C 423.175781 57.421875 422.210938 58.886719 420.984375 60.121094 C 419.753906 61.355469 418.285156 62.320312 416.574219 63 C 414.867188 63.683594 413 64.035156 410.972656 64.035156 C 409.878906 64.035156 408.757812 63.984375 407.601562 63.886719 C 406.441406 63.789062 405.289062 63.597656 404.15625 63.285156 C 403.03125 62.972656 401.949219 62.550781 400.929688 62.007812 C 399.917969 61.457031 399.035156 60.742188 398.273438 59.84375 C 398.042969 59.511719 397.761719 59.082031 397.453125 58.566406 C 397.140625 58.046875 396.996094 57.574219 396.996094 57.144531 L 396.996094 42.660156 C 396.996094 42.464844 397.105469 42.175781 397.320312 41.777344 C 397.53125 41.371094 397.6875 41.054688 397.773438 40.816406 C 398.386719 39.773438 399.207031 38.9375 400.21875 38.296875 C 401.238281 37.648438 402.347656 37.164062 403.554688 36.804688 C 404.765625 36.453125 405.988281 36.207031 407.25 36.09375 C 408.503906 35.972656 409.675781 35.914062 410.757812 35.914062 C 412.878906 35.914062 414.808594 36.25 416.539062 36.910156 C 418.261719 37.574219 419.753906 38.515625 421.011719 39.746094 C 422.265625 40.972656 423.222656 42.464844 423.886719 44.21875 C 424.550781 45.972656 424.878906 47.914062 424.878906 50.035156 C 424.878906 52.121094 424.539062 54.011719 423.855469 55.71875 Z M 423.855469 55.71875 " fill-opacity="1" fill-rule="evenodd"/><path fill="#F9F4F4" d="M 339.324219 54.601562 C 338.214844 54.664062 337.554688 55.476562 337.785156 56.566406 C 337.894531 57.066406 338.105469 57.5625 338.375 57.988281 C 339.46875 59.683594 339.484375 59.914062 341.144531 61.03125 C 341.167969 61.046875 341.21875 61.035156 341.21875 61.035156 C 341.347656 60.445312 342.203125 59.359375 341.683594 58.890625 C 340.914062 58.203125 340.242188 57.421875 339.691406 56.515625 C 342.136719 57.070312 345.835938 60.191406 346.421875 61.789062 C 345.980469 61.648438 345.617188 61.519531 345.105469 61.355469 C 345.015625 61.878906 344.867188 62.359375 344.78125 62.867188 C 344.734375 63.167969 344.835938 63.324219 345.132812 63.417969 C 345.570312 63.566406 346.058594 63.695312 346.421875 63.960938 C 355.902344 70.867188 365.375 77.800781 374.839844 84.742188 C 375.417969 85.167969 376.039062 85.246094 376.75 85.394531 C 376.445312 84.730469 376.230469 84.132812 375.683594 83.679688 C 367.273438 76.695312 358.871094 69.707031 350.480469 62.710938 C 349.363281 61.78125 348.226562 60.898438 347.347656 59.675781 C 345.953125 57.734375 344.035156 56.347656 341.914062 55.273438 C 341.105469 54.867188 340.257812 54.550781 339.324219 54.601562 Z M 339.324219 54.601562 " fill-opacity="1" fill-rule="evenodd"/><path fill="#F9F4F4" d="M 343.484375 79.609375 C 343.871094 79.34375 344.09375 78.488281 344.023438 77.933594 C 343.371094 72.597656 342.96875 67.296875 344.746094 62.082031 C 344.820312 61.839844 344.804688 61.417969 344.648438 61.261719 C 343.964844 60.5625 343.214844 59.925781 342.480469 59.265625 C 342.316406 59.453125 342.25 59.5 342.21875 59.566406 C 342.09375 59.851562 341.964844 60.132812 341.855469 60.417969 C 339.589844 66.441406 339.9375 72.621094 340.824219 78.828125 C 340.871094 79.167969 341.265625 79.671875 341.566406 79.730469 C 342.191406 79.839844 343.003906 79.914062 343.484375 79.609375 Z M 343.484375 79.609375 " fill-opacity="1" fill-rule="evenodd"/><path fill="#F9F4F4" d="M 31.015625 23.453125 L 14.660156 23.453125 C 13.15625 23.453125 11.765625 22.9375 10.691406 21.859375 C 9.636719 20.804688 9.121094 19.460938 9.121094 17.980469 C 9.121094 16.453125 9.613281 15.0625 10.691406 14.007812 C 11.765625 12.933594 13.15625 12.417969 14.660156 12.417969 L 59.035156 12.417969 C 60.539062 12.417969 61.929688 12.933594 63.003906 14.007812 C 64.082031 15.0625 64.597656 16.453125 64.597656 17.980469 C 64.597656 19.460938 64.058594 20.804688 63.003906 21.859375 C 61.929688 22.9375 60.539062 23.453125 59.035156 23.453125 L 42.613281 23.453125 L 42.613281 74.601562 C 42.613281 76.148438 42.050781 77.542969 40.996094 78.664062 C 39.875 79.828125 38.417969 80.414062 36.800781 80.414062 C 35.230469 80.414062 33.820312 79.808594 32.71875 78.707031 C 31.621094 77.585938 31.015625 76.195312 31.015625 74.601562 Z M 101.050781 53.109375 L 112.5625 71.507812 C 113.726562 73.367188 114.175781 75.523438 113.097656 77.542969 C 112.042969 79.558594 110.027344 80.414062 107.804688 80.414062 C 106.707031 80.414062 105.628906 80.1875 104.6875 79.558594 C 103.902344 79.042969 103.273438 78.328125 102.824219 77.5625 L 89.207031 55.871094 L 80.078125 55.871094 L 80.078125 74.601562 C 80.078125 76.195312 79.539062 77.632812 78.417969 78.753906 C 77.296875 79.875 75.859375 80.414062 74.289062 80.414062 C 72.695312 80.414062 71.261719 79.875 70.140625 78.753906 C 69.039062 77.632812 68.480469 76.195312 68.480469 74.601562 L 68.480469 18.203125 C 68.480469 16.632812 69.015625 15.199219 70.140625 14.078125 C 71.261719 12.953125 72.695312 12.417969 74.289062 12.417969 L 89.273438 12.417969 C 93.378906 12.417969 97.351562 13.246094 100.960938 15.175781 C 104.417969 17.015625 107.175781 19.617188 109.171875 22.984375 C 111.257812 26.480469 112.179688 30.363281 112.179688 34.421875 C 112.179688 38.371094 111.238281 42.140625 109.171875 45.527344 C 107.175781 48.78125 104.417969 51.316406 101.050781 53.109375 Z M 160.679688 65.496094 L 133.222656 65.496094 L 128.511719 76.84375 C 128.039062 77.945312 127.300781 78.886719 126.289062 79.515625 C 125.347656 80.121094 124.269531 80.414062 123.148438 80.414062 C 117.273438 80.414062 115.722656 77.160156 117.878906 72.203125 L 141.476562 16.207031 C 142.464844 13.851562 144.394531 12.417969 146.972656 12.417969 C 149.554688 12.417969 151.414062 13.898438 152.402344 16.207031 L 176.070312 72.292969 C 176.855469 74.132812 176.742188 76.039062 175.667969 77.742188 C 174.566406 79.449219 172.839844 80.414062 170.796875 80.414062 C 169.675781 80.414062 168.601562 80.121094 167.65625 79.515625 C 166.625 78.863281 165.839844 77.96875 165.371094 76.824219 Z M 214.566406 61.726562 L 237.402344 15.511719 C 238.414062 13.472656 240.363281 12.417969 242.609375 12.417969 C 244.15625 12.417969 245.570312 12.976562 246.667969 14.078125 C 247.769531 15.199219 248.328125 16.632812 248.328125 18.203125 L 248.328125 74.601562 C 248.328125 76.148438 247.769531 77.5625 246.714844 78.664062 C 245.613281 79.808594 244.179688 80.414062 242.609375 80.414062 C 241.015625 80.414062 239.558594 79.828125 238.4375 78.707031 C 237.3125 77.585938 236.730469 76.171875 236.730469 74.601562 L 236.730469 40.707031 L 219.5 75.949219 C 218.515625 77.96875 216.5625 78.976562 214.363281 78.976562 C 211.964844 78.976562 210.148438 77.675781 209.09375 75.566406 L 191.929688 41.222656 L 191.929688 74.601562 C 191.929688 76.171875 191.324219 77.609375 190.226562 78.707031 C 189.105469 79.808594 187.691406 80.414062 186.121094 80.414062 C 184.550781 80.414062 183.136719 79.808594 182.039062 78.707031 C 180.914062 77.609375 180.332031 76.171875 180.332031 74.601562 L 180.332031 18.203125 C 180.332031 16.613281 180.914062 15.152344 182.082031 14.03125 C 183.183594 12.976562 184.59375 12.417969 186.121094 12.417969 C 188.363281 12.417969 190.292969 13.449219 191.324219 15.488281 Z M 295.796875 65.496094 L 268.316406 65.496094 L 263.605469 76.84375 C 263.15625 77.945312 262.417969 78.886719 261.40625 79.515625 C 260.441406 80.121094 259.367188 80.414062 258.246094 80.414062 C 256.089844 80.414062 254.25 79.402344 253.242188 77.453125 C 252.367188 75.792969 252.253906 73.953125 252.996094 72.203125 L 276.574219 16.207031 C 277.558594 13.851562 279.488281 12.417969 282.089844 12.417969 C 284.648438 12.417969 286.535156 13.898438 287.496094 16.207031 L 311.164062 72.292969 C 311.949219 74.132812 311.839844 76.039062 310.761719 77.742188 C 309.664062 79.449219 307.957031 80.414062 305.914062 80.414062 C 304.792969 80.414062 303.71875 80.121094 302.753906 79.515625 C 301.742188 78.863281 300.9375 77.96875 300.464844 76.824219 Z M 80.078125 44.496094 L 89.273438 44.496094 C 91.382812 44.496094 93.449219 44.136719 95.308594 43.152344 C 96.96875 42.296875 98.316406 41.132812 99.300781 39.5625 C 100.3125 37.992188 100.738281 36.261719 100.738281 34.421875 C 100.738281 32.449219 100.3125 30.566406 99.28125 28.882812 C 98.292969 27.265625 96.96875 26.035156 95.285156 25.136719 C 93.425781 24.148438 91.382812 23.769531 89.273438 23.769531 L 80.078125 23.769531 Z M 156.285156 54.769531 L 146.996094 32.292969 L 137.664062 54.769531 Z M 291.378906 54.769531 L 282.113281 32.292969 L 272.757812 54.769531 Z M 291.378906 54.769531 " fill-opacity="1" fill-rule="evenodd"/></svg>